<mxfile host="app.diagrams.net" agent="Mozilla/5.0 (Windows NT 10.0; Win64; x64; rv:128.0) Gecko/20100101 Firefox/128.0" version="24.7.14">
  <diagram id="prtHgNgQTEPvFCAcTncT" name="Page-1">
    <mxGraphModel dx="2424" dy="818" grid="1" gridSize="10" guides="1" tooltips="1" connect="1" arrows="1" fold="1" page="1" pageScale="1" pageWidth="827" pageHeight="1169" math="0" shadow="0">
      <root>
        <mxCell id="0" />
        <mxCell id="1" parent="0" />
        <mxCell id="dNxyNK7c78bLwvsdeMH5-11" value="Option 2 - Boucles Itératives Natives" style="swimlane;html=1;startSize=20;horizontal=1;containerType=tree;glass=0;swimlaneLine=1;" parent="1" vertex="1">
          <mxGeometry x="-160" y="130" width="1500" height="1300" as="geometry" />
        </mxCell>
        <UserObject label="&lt;div align=&quot;center&quot;&gt;Barre de recherche&lt;/div&gt;&lt;div&gt;&lt;br&gt;&lt;/div&gt;&lt;div&gt;&lt;span style=&quot;font-weight: normal;&quot;&gt;Enregistrement de la recherche en cours&lt;/span&gt;&lt;br&gt;&lt;/div&gt;(au moins 3 caractères passés)" name="Tessa Miller" position="CFO" location="Office 1" email="me@example.com" placeholders="1" id="dNxyNK7c78bLwvsdeMH5-12">
          <mxCell style="label;image=https://cdn3.iconfinder.com/data/icons/user-avatars-1/512/users-3-128.png;whiteSpace=wrap;html=1;rounded=0;glass=0;treeMoving=1;treeFolding=1;fillColor=#fff2cc;strokeColor=#d6b656;strokeWidth=0;" parent="dNxyNK7c78bLwvsdeMH5-11" vertex="1">
            <mxGeometry x="220" y="100" width="293" height="90" as="geometry" />
          </mxCell>
        </UserObject>
        <mxCell id="guzvhUk8A1Xf9N3mO2cr-11" value="" style="edgeStyle=none;curved=1;rounded=0;orthogonalLoop=1;jettySize=auto;html=1;exitX=0.5;exitY=1;exitDx=0;exitDy=0;" parent="dNxyNK7c78bLwvsdeMH5-11" source="guzvhUk8A1Xf9N3mO2cr-2" target="guzvhUk8A1Xf9N3mO2cr-12" edge="1">
          <mxGeometry relative="1" as="geometry">
            <mxPoint x="405" y="240" as="sourcePoint" />
          </mxGeometry>
        </mxCell>
        <mxCell id="guzvhUk8A1Xf9N3mO2cr-2" value="&lt;div style=&quot;font-size: 11px;&quot;&gt;&lt;font style=&quot;font-size: 11px;&quot;&gt;Récupération du nom&lt;/font&gt;&lt;/div&gt;&lt;div style=&quot;font-size: 11px;&quot;&gt;&lt;font style=&quot;font-size: 11px;&quot;&gt;&lt;br&gt;&lt;/font&gt;&lt;/div&gt;&lt;div style=&quot;font-size: 11px;&quot;&gt;&lt;font style=&quot;font-size: 11px;&quot;&gt;Récupération de la description&lt;/font&gt;&lt;/div&gt;&lt;div style=&quot;font-size: 11px;&quot;&gt;&lt;font style=&quot;font-size: 11px;&quot;&gt;&lt;br&gt;&lt;/font&gt;&lt;/div&gt;&lt;div style=&quot;font-size: 11px;&quot;&gt;&lt;font style=&quot;font-size: 11px;&quot;&gt;Récupération de la liste des ingrédients&lt;/font&gt;&lt;/div&gt;&lt;div style=&quot;font-size: 11px;&quot;&gt;&lt;font style=&quot;font-size: 11px;&quot;&gt;&lt;br&gt;&lt;/font&gt;&lt;/div&gt;" style="rounded=0;whiteSpace=wrap;html=1;" parent="dNxyNK7c78bLwvsdeMH5-11" vertex="1">
          <mxGeometry x="271.5" y="379" width="190" height="110" as="geometry" />
        </mxCell>
        <mxCell id="guzvhUk8A1Xf9N3mO2cr-29" style="edgeStyle=none;curved=1;rounded=0;orthogonalLoop=1;jettySize=auto;html=1;fontSize=12;startSize=8;endSize=8;exitX=0.5;exitY=1;exitDx=0;exitDy=0;" parent="dNxyNK7c78bLwvsdeMH5-11" source="guzvhUk8A1Xf9N3mO2cr-12" edge="1">
          <mxGeometry relative="1" as="geometry">
            <mxPoint x="210" y="610" as="targetPoint" />
            <mxPoint x="214.25" y="540" as="sourcePoint" />
            <Array as="points">
              <mxPoint x="210" y="570" />
              <mxPoint x="210" y="600" />
            </Array>
          </mxGeometry>
        </mxCell>
        <mxCell id="guzvhUk8A1Xf9N3mO2cr-65" style="edgeStyle=none;curved=1;rounded=0;orthogonalLoop=1;jettySize=auto;html=1;entryX=0.5;entryY=0;entryDx=0;entryDy=0;fontSize=12;startSize=8;endSize=8;" parent="dNxyNK7c78bLwvsdeMH5-11" source="guzvhUk8A1Xf9N3mO2cr-12" target="guzvhUk8A1Xf9N3mO2cr-30" edge="1">
          <mxGeometry relative="1" as="geometry" />
        </mxCell>
        <mxCell id="guzvhUk8A1Xf9N3mO2cr-80" style="edgeStyle=none;curved=1;rounded=0;orthogonalLoop=1;jettySize=auto;html=1;fontSize=12;startSize=8;endSize=8;entryX=0;entryY=0.5;entryDx=0;entryDy=0;" parent="dNxyNK7c78bLwvsdeMH5-11" source="guzvhUk8A1Xf9N3mO2cr-12" target="guzvhUk8A1Xf9N3mO2cr-4" edge="1">
          <mxGeometry relative="1" as="geometry">
            <mxPoint x="349.9999999999998" y="570" as="targetPoint" />
          </mxGeometry>
        </mxCell>
        <mxCell id="guzvhUk8A1Xf9N3mO2cr-12" value="&lt;div style=&quot;font-size: 11px;&quot;&gt;&lt;font style=&quot;font-size: 11px;&quot;&gt;Correpondance de la recherche&lt;/font&gt;&lt;/div&gt;&lt;div style=&quot;font-size: 11px;&quot;&gt;&lt;font style=&quot;font-size: 11px;&quot;&gt;avec &lt;b&gt;le Nom&lt;/b&gt;&lt;/font&gt;&lt;br&gt;&lt;/div&gt;" style="rounded=0;whiteSpace=wrap;html=1;" parent="dNxyNK7c78bLwvsdeMH5-11" vertex="1">
          <mxGeometry x="110" y="540" width="170" height="80" as="geometry" />
        </mxCell>
        <mxCell id="guzvhUk8A1Xf9N3mO2cr-82" style="edgeStyle=none;curved=1;rounded=0;orthogonalLoop=1;jettySize=auto;html=1;entryX=0;entryY=0.5;entryDx=0;entryDy=0;fontSize=12;startSize=8;endSize=8;" parent="dNxyNK7c78bLwvsdeMH5-11" source="guzvhUk8A1Xf9N3mO2cr-4" target="guzvhUk8A1Xf9N3mO2cr-10" edge="1">
          <mxGeometry relative="1" as="geometry" />
        </mxCell>
        <mxCell id="guzvhUk8A1Xf9N3mO2cr-4" value="&lt;div style=&quot;font-size: 11px;&quot;&gt;Correpondance de la recherche avec&lt;b&gt; la Description&lt;/b&gt;&lt;br&gt;&lt;/div&gt;" style="rounded=0;whiteSpace=wrap;html=1;" parent="dNxyNK7c78bLwvsdeMH5-11" vertex="1">
          <mxGeometry x="370" y="540" width="170" height="80" as="geometry" />
        </mxCell>
        <mxCell id="guzvhUk8A1Xf9N3mO2cr-104" style="edgeStyle=none;curved=1;rounded=0;orthogonalLoop=1;jettySize=auto;html=1;fontSize=12;startSize=8;endSize=8;entryX=0.226;entryY=-0.008;entryDx=0;entryDy=0;entryPerimeter=0;exitX=1;exitY=0.5;exitDx=0;exitDy=0;" parent="dNxyNK7c78bLwvsdeMH5-11" source="guzvhUk8A1Xf9N3mO2cr-10" target="guzvhUk8A1Xf9N3mO2cr-66" edge="1">
          <mxGeometry relative="1" as="geometry">
            <mxPoint x="920" y="580" as="targetPoint" />
          </mxGeometry>
        </mxCell>
        <mxCell id="guzvhUk8A1Xf9N3mO2cr-10" value="&lt;font style=&quot;font-size: 11px;&quot;&gt;Existance de la liste d&#39;ingrédients&lt;/font&gt;" style="rounded=0;whiteSpace=wrap;html=1;" parent="dNxyNK7c78bLwvsdeMH5-11" vertex="1">
          <mxGeometry x="607" y="540" width="160" height="80" as="geometry" />
        </mxCell>
        <mxCell id="guzvhUk8A1Xf9N3mO2cr-19" style="edgeStyle=none;curved=1;rounded=0;orthogonalLoop=1;jettySize=auto;html=1;fontSize=12;startSize=8;endSize=8;entryX=0.5;entryY=0;entryDx=0;entryDy=0;" parent="dNxyNK7c78bLwvsdeMH5-11" source="guzvhUk8A1Xf9N3mO2cr-18" target="guzvhUk8A1Xf9N3mO2cr-2" edge="1">
          <mxGeometry relative="1" as="geometry">
            <mxPoint x="383" y="310" as="targetPoint" />
          </mxGeometry>
        </mxCell>
        <mxCell id="guzvhUk8A1Xf9N3mO2cr-18" value="&lt;font style=&quot;font-size: 11px;&quot;&gt;Itération sur chaque recette (élèment) de la liste des recettes initiales &lt;/font&gt;" style="rounded=0;whiteSpace=wrap;html=1;" parent="dNxyNK7c78bLwvsdeMH5-11" vertex="1">
          <mxGeometry x="263.5" y="300" width="206" height="50" as="geometry" />
        </mxCell>
        <mxCell id="guzvhUk8A1Xf9N3mO2cr-30" value="&lt;div&gt;&lt;font style=&quot;font-size: 11px;&quot;&gt;Ajout de la recette &lt;br&gt;&lt;/font&gt;&lt;/div&gt;&lt;div&gt;&lt;font style=&quot;font-size: 11px;&quot;&gt;au &lt;b&gt;tableau résultats&lt;/b&gt;&lt;/font&gt;&lt;/div&gt;&lt;div&gt;&lt;font style=&quot;font-size: 11px;&quot;&gt;(si elle n&#39;y figure pas)&lt;b&gt;&lt;br&gt;&lt;/b&gt;&lt;/font&gt;&lt;/div&gt;" style="rounded=0;whiteSpace=wrap;html=1;fillColor=#fff2cc;strokeColor=#d6b656;" parent="dNxyNK7c78bLwvsdeMH5-11" vertex="1">
          <mxGeometry x="120" y="700" width="160" height="80" as="geometry" />
        </mxCell>
        <mxCell id="guzvhUk8A1Xf9N3mO2cr-36" style="edgeStyle=none;curved=1;rounded=0;orthogonalLoop=1;jettySize=auto;html=1;exitX=0.5;exitY=1;exitDx=0;exitDy=0;entryX=0.5;entryY=0;entryDx=0;entryDy=0;fontSize=12;startSize=8;endSize=8;" parent="dNxyNK7c78bLwvsdeMH5-11" source="guzvhUk8A1Xf9N3mO2cr-32" target="guzvhUk8A1Xf9N3mO2cr-18" edge="1">
          <mxGeometry relative="1" as="geometry" />
        </mxCell>
        <mxCell id="guzvhUk8A1Xf9N3mO2cr-32" value="&lt;font style=&quot;font-size: 11px;&quot;&gt;Initialisation du &lt;b&gt;tableau résultats&lt;/b&gt;&lt;/font&gt;" style="rounded=0;whiteSpace=wrap;html=1;" parent="dNxyNK7c78bLwvsdeMH5-11" vertex="1">
          <mxGeometry x="263.5" y="240" width="206" height="29" as="geometry" />
        </mxCell>
        <mxCell id="guzvhUk8A1Xf9N3mO2cr-35" style="edgeStyle=none;curved=1;rounded=0;orthogonalLoop=1;jettySize=auto;html=1;exitX=0.516;exitY=1.008;exitDx=0;exitDy=0;fontSize=12;startSize=8;endSize=8;exitPerimeter=0;entryX=0.52;entryY=0.002;entryDx=0;entryDy=0;entryPerimeter=0;" parent="dNxyNK7c78bLwvsdeMH5-11" edge="1">
          <mxGeometry relative="1" as="geometry">
            <mxPoint x="366.1100000000001" y="190.00000000000003" as="sourcePoint" />
            <mxPoint x="366.07000000000016" y="240.3380000000001" as="targetPoint" />
          </mxGeometry>
        </mxCell>
        <mxCell id="guzvhUk8A1Xf9N3mO2cr-57" value="&lt;div&gt;&lt;font style=&quot;font-size: 11px;&quot;&gt;Ajout de la recette &lt;br&gt;&lt;/font&gt;&lt;/div&gt;&lt;div&gt;&lt;font style=&quot;font-size: 11px;&quot;&gt;au &lt;b&gt;tableau résultats&lt;/b&gt;&lt;/font&gt;&lt;/div&gt;&lt;div&gt;&lt;font style=&quot;font-size: 11px;&quot;&gt;(si elle n&#39;y figure pas)&lt;b&gt;&lt;br&gt;&lt;/b&gt;&lt;/font&gt;&lt;/div&gt;" style="rounded=0;whiteSpace=wrap;html=1;fillColor=#fff2cc;strokeColor=#d6b656;" parent="dNxyNK7c78bLwvsdeMH5-11" vertex="1">
          <mxGeometry x="380" y="700" width="165" height="80" as="geometry" />
        </mxCell>
        <mxCell id="guzvhUk8A1Xf9N3mO2cr-58" style="edgeStyle=none;curved=1;rounded=0;orthogonalLoop=1;jettySize=auto;html=1;entryX=0.442;entryY=-0.016;entryDx=0;entryDy=0;entryPerimeter=0;fontSize=12;startSize=8;endSize=8;" parent="dNxyNK7c78bLwvsdeMH5-11" source="guzvhUk8A1Xf9N3mO2cr-4" target="guzvhUk8A1Xf9N3mO2cr-57" edge="1">
          <mxGeometry relative="1" as="geometry" />
        </mxCell>
        <mxCell id="guzvhUk8A1Xf9N3mO2cr-60" value="&lt;font style=&quot;font-size: 16px;&quot;&gt;Affichage des recettes disponibles&lt;/font&gt;" style="rounded=0;whiteSpace=wrap;html=1;fillColor=#d5e8d4;strokeColor=#82b366;strokeWidth=0;" parent="dNxyNK7c78bLwvsdeMH5-11" vertex="1">
          <mxGeometry x="1146" y="90" width="280" height="140" as="geometry" />
        </mxCell>
        <mxCell id="guzvhUk8A1Xf9N3mO2cr-64" style="edgeStyle=none;curved=1;rounded=0;orthogonalLoop=1;jettySize=auto;html=1;exitX=0;exitY=0.5;exitDx=0;exitDy=0;entryX=0.988;entryY=0.615;entryDx=0;entryDy=0;entryPerimeter=0;fontSize=12;startSize=8;endSize=8;" parent="dNxyNK7c78bLwvsdeMH5-11" source="guzvhUk8A1Xf9N3mO2cr-60" target="dNxyNK7c78bLwvsdeMH5-12" edge="1">
          <mxGeometry relative="1" as="geometry" />
        </mxCell>
        <mxCell id="guzvhUk8A1Xf9N3mO2cr-66" value="Mise à jour des recettes disponibles" style="rounded=0;whiteSpace=wrap;html=1;fillColor=#dae8fc;strokeColor=#6c8ebf;" parent="dNxyNK7c78bLwvsdeMH5-11" vertex="1">
          <mxGeometry x="1250" y="1080" width="230" height="130" as="geometry" />
        </mxCell>
        <mxCell id="guzvhUk8A1Xf9N3mO2cr-67" style="edgeStyle=none;curved=1;rounded=0;orthogonalLoop=1;jettySize=auto;html=1;entryX=0.907;entryY=0.994;entryDx=0;entryDy=0;entryPerimeter=0;fontSize=12;startSize=8;endSize=8;" parent="dNxyNK7c78bLwvsdeMH5-11" target="guzvhUk8A1Xf9N3mO2cr-60" edge="1">
          <mxGeometry relative="1" as="geometry">
            <mxPoint x="1402" y="1080" as="sourcePoint" />
            <mxPoint x="1332.7299999999998" y="227.05999999999995" as="targetPoint" />
          </mxGeometry>
        </mxCell>
        <mxCell id="guzvhUk8A1Xf9N3mO2cr-74" value="&lt;font color=&quot;#000099&quot;&gt;oui&lt;/font&gt;" style="text;html=1;align=center;verticalAlign=middle;resizable=0;points=[];autosize=1;strokeColor=none;fillColor=none;fontSize=16;" parent="dNxyNK7c78bLwvsdeMH5-11" vertex="1">
          <mxGeometry x="200" y="640" width="40" height="30" as="geometry" />
        </mxCell>
        <mxCell id="guzvhUk8A1Xf9N3mO2cr-75" value="&lt;font color=&quot;#000099&quot;&gt;oui&lt;/font&gt;" style="text;html=1;align=center;verticalAlign=middle;resizable=0;points=[];autosize=1;strokeColor=none;fillColor=none;fontSize=16;" parent="dNxyNK7c78bLwvsdeMH5-11" vertex="1">
          <mxGeometry x="460" y="640" width="40" height="30" as="geometry" />
        </mxCell>
        <mxCell id="guzvhUk8A1Xf9N3mO2cr-81" value="&lt;font color=&quot;#cc0066&quot;&gt;non&lt;/font&gt;" style="text;html=1;align=center;verticalAlign=middle;resizable=0;points=[];autosize=1;strokeColor=none;fillColor=none;fontSize=16;" parent="dNxyNK7c78bLwvsdeMH5-11" vertex="1">
          <mxGeometry x="292" y="540" width="50" height="30" as="geometry" />
        </mxCell>
        <mxCell id="guzvhUk8A1Xf9N3mO2cr-83" value="&lt;font color=&quot;#cc0066&quot;&gt;non&lt;/font&gt;" style="text;html=1;align=center;verticalAlign=middle;resizable=0;points=[];autosize=1;strokeColor=none;fillColor=none;fontSize=16;" parent="dNxyNK7c78bLwvsdeMH5-11" vertex="1">
          <mxGeometry x="545" y="540" width="50" height="30" as="geometry" />
        </mxCell>
        <mxCell id="guzvhUk8A1Xf9N3mO2cr-85" value="&lt;div&gt;&lt;font style=&quot;font-size: 11px;&quot;&gt;Ajout de la recette &lt;br&gt;&lt;/font&gt;&lt;/div&gt;&lt;div&gt;&lt;font style=&quot;font-size: 11px;&quot;&gt;au &lt;b&gt;tableau résultats&lt;/b&gt;&lt;/font&gt;&lt;/div&gt;&lt;div&gt;&lt;font style=&quot;font-size: 11px;&quot;&gt;(si elle n&#39;existe pas)&lt;b&gt;&lt;br&gt;&lt;/b&gt;&lt;/font&gt;&lt;/div&gt;" style="rounded=0;whiteSpace=wrap;html=1;fillColor=#fff2cc;strokeColor=#d6b656;" parent="dNxyNK7c78bLwvsdeMH5-11" vertex="1">
          <mxGeometry x="612.5" y="990" width="165" height="80" as="geometry" />
        </mxCell>
        <mxCell id="guzvhUk8A1Xf9N3mO2cr-94" style="edgeStyle=none;curved=1;rounded=0;orthogonalLoop=1;jettySize=auto;html=1;entryX=0.5;entryY=0;entryDx=0;entryDy=0;fontSize=12;startSize=8;endSize=8;" parent="dNxyNK7c78bLwvsdeMH5-11" source="guzvhUk8A1Xf9N3mO2cr-87" target="guzvhUk8A1Xf9N3mO2cr-92" edge="1">
          <mxGeometry relative="1" as="geometry" />
        </mxCell>
        <mxCell id="guzvhUk8A1Xf9N3mO2cr-87" value="&lt;font style=&quot;font-size: 11px;&quot;&gt;Itération sur chaque ingrédient de la liste des ingrédients &lt;/font&gt;" style="rounded=0;whiteSpace=wrap;html=1;" parent="dNxyNK7c78bLwvsdeMH5-11" vertex="1">
          <mxGeometry x="603.5" y="705" width="183" height="70" as="geometry" />
        </mxCell>
        <mxCell id="guzvhUk8A1Xf9N3mO2cr-89" style="edgeStyle=none;curved=1;rounded=0;orthogonalLoop=1;jettySize=auto;html=1;entryX=0.462;entryY=0;entryDx=0;entryDy=0;entryPerimeter=0;fontSize=12;startSize=8;endSize=8;" parent="dNxyNK7c78bLwvsdeMH5-11" source="guzvhUk8A1Xf9N3mO2cr-10" target="guzvhUk8A1Xf9N3mO2cr-87" edge="1">
          <mxGeometry relative="1" as="geometry" />
        </mxCell>
        <mxCell id="guzvhUk8A1Xf9N3mO2cr-90" value="&lt;font color=&quot;#cc0066&quot;&gt;non&lt;/font&gt;" style="text;html=1;align=center;verticalAlign=middle;resizable=0;points=[];autosize=1;strokeColor=none;fillColor=none;fontSize=16;" parent="dNxyNK7c78bLwvsdeMH5-11" vertex="1">
          <mxGeometry x="790" y="580" width="50" height="30" as="geometry" />
        </mxCell>
        <mxCell id="guzvhUk8A1Xf9N3mO2cr-91" value="&lt;font color=&quot;#000099&quot;&gt;oui&lt;/font&gt;" style="text;html=1;align=center;verticalAlign=middle;resizable=0;points=[];autosize=1;strokeColor=none;fillColor=none;fontSize=16;" parent="dNxyNK7c78bLwvsdeMH5-11" vertex="1">
          <mxGeometry x="696" y="640" width="40" height="30" as="geometry" />
        </mxCell>
        <mxCell id="guzvhUk8A1Xf9N3mO2cr-96" style="edgeStyle=none;curved=1;rounded=0;orthogonalLoop=1;jettySize=auto;html=1;fontSize=12;startSize=8;endSize=8;" parent="dNxyNK7c78bLwvsdeMH5-11" source="guzvhUk8A1Xf9N3mO2cr-92" target="guzvhUk8A1Xf9N3mO2cr-85" edge="1">
          <mxGeometry relative="1" as="geometry" />
        </mxCell>
        <mxCell id="guzvhUk8A1Xf9N3mO2cr-92" value="&lt;div style=&quot;font-size: 11px;&quot;&gt;Correpondance de la recherche avec &lt;b&gt;un Ingrédient&lt;/b&gt;&lt;br&gt;&lt;/div&gt;" style="rounded=0;whiteSpace=wrap;html=1;" parent="dNxyNK7c78bLwvsdeMH5-11" vertex="1">
          <mxGeometry x="615" y="840" width="165" height="80" as="geometry" />
        </mxCell>
        <mxCell id="guzvhUk8A1Xf9N3mO2cr-95" value="&lt;font color=&quot;#000099&quot;&gt;oui&lt;/font&gt;" style="text;html=1;align=center;verticalAlign=middle;resizable=0;points=[];autosize=1;strokeColor=none;fillColor=none;fontSize=16;" parent="dNxyNK7c78bLwvsdeMH5-11" vertex="1">
          <mxGeometry x="700" y="940" width="40" height="30" as="geometry" />
        </mxCell>
        <mxCell id="guzvhUk8A1Xf9N3mO2cr-99" value="" style="edgeStyle=segmentEdgeStyle;endArrow=classic;html=1;curved=0;rounded=0;endSize=8;startSize=8;sourcePerimeterSpacing=0;targetPerimeterSpacing=0;fontSize=12;entryX=0.001;entryY=0.886;entryDx=0;entryDy=0;entryPerimeter=0;" parent="dNxyNK7c78bLwvsdeMH5-11" target="guzvhUk8A1Xf9N3mO2cr-66" edge="1">
          <mxGeometry width="140" relative="1" as="geometry">
            <mxPoint x="200" y="780" as="sourcePoint" />
            <mxPoint x="340" y="840" as="targetPoint" />
            <Array as="points">
              <mxPoint x="200" y="1200" />
              <mxPoint x="1250" y="1200" />
            </Array>
          </mxGeometry>
        </mxCell>
        <mxCell id="guzvhUk8A1Xf9N3mO2cr-101" value="" style="edgeStyle=segmentEdgeStyle;endArrow=classic;html=1;curved=0;rounded=0;endSize=8;startSize=8;sourcePerimeterSpacing=0;targetPerimeterSpacing=0;fontSize=12;entryX=0;entryY=0.5;entryDx=0;entryDy=0;exitX=0.414;exitY=1.026;exitDx=0;exitDy=0;exitPerimeter=0;" parent="dNxyNK7c78bLwvsdeMH5-11" source="guzvhUk8A1Xf9N3mO2cr-57" target="guzvhUk8A1Xf9N3mO2cr-66" edge="1">
          <mxGeometry width="140" relative="1" as="geometry">
            <mxPoint x="450" y="800" as="sourcePoint" />
            <mxPoint x="1486" y="1164.02" as="targetPoint" />
            <Array as="points">
              <mxPoint x="450" y="782" />
              <mxPoint x="450" y="1160" />
              <mxPoint x="1250" y="1160" />
            </Array>
          </mxGeometry>
        </mxCell>
        <mxCell id="guzvhUk8A1Xf9N3mO2cr-106" value="" style="edgeStyle=segmentEdgeStyle;endArrow=classic;html=1;curved=0;rounded=0;endSize=8;startSize=8;sourcePerimeterSpacing=0;targetPerimeterSpacing=0;fontSize=12;entryX=0.009;entryY=0.387;entryDx=0;entryDy=0;entryPerimeter=0;" parent="dNxyNK7c78bLwvsdeMH5-11" target="guzvhUk8A1Xf9N3mO2cr-66" edge="1">
          <mxGeometry width="140" relative="1" as="geometry">
            <mxPoint x="696" y="1070" as="sourcePoint" />
            <mxPoint x="1240" y="1140" as="targetPoint" />
            <Array as="points">
              <mxPoint x="696" y="1130" />
              <mxPoint x="1240" y="1130" />
            </Array>
          </mxGeometry>
        </mxCell>
      </root>
    </mxGraphModel>
  </diagram>
</mxfile>
